<svg width="300" height="23" viewBox="0 0 300 23" fill="none" xmlns="http://www.w3.org/2000/svg">
<path d="M87.341 0.0496982C85.0892 0.327551 82.9508 1.44411 81.5183 3.09578C79.0707 5.91547 78.5554 9.87744 80.2094 13.1911C80.6887 14.143 81.204 14.8531 81.9666 15.5991C82.9868 16.5973 84.0071 17.2457 85.2799 17.6985C88.0315 18.6812 90.9944 18.3108 93.442 16.6797C93.746 16.479 94.0088 16.3092 94.014 16.3092C94.0243 16.3092 94.2871 16.4842 94.6014 16.6951C96.9305 18.2645 99.8625 18.6607 102.542 17.7705C105.247 16.8701 107.375 14.7399 108.287 12.0282C109.395 8.71972 108.545 5.12308 106.072 2.65328C104.598 1.18169 102.712 0.281242 100.625 0.0548436C98.3527 -0.197282 96.0597 0.44075 94.1376 1.86088L94.0037 1.95865L93.5708 1.64992C92.5351 0.908982 91.2417 0.379005 89.8402 0.121734C89.3352 0.0291166 87.8666 -0.0120468 87.341 0.0496982ZM94.5756 2.47319C95.9618 3.78527 96.9047 5.47811 97.2912 7.34589C97.4252 7.99422 97.4819 9.579 97.3943 10.2531C97.1469 12.1105 96.3895 13.7777 95.127 15.2235C94.8075 15.5888 94.0707 16.2578 93.9831 16.2578C93.88 16.2578 92.6227 14.9405 92.3238 14.5237C91.2263 12.9801 90.6646 11.4005 90.5616 9.54299C90.4482 7.6186 91.0717 5.4884 92.2259 3.8573C92.5918 3.33762 93.8697 2.00496 94.0037 2.00496C94.0449 2.00496 94.3025 2.21592 94.5756 2.47319Z" fill="black"/>
<path d="M14.9196 1.61371C12.7296 1.95845 10.9519 3.57411 10.349 5.77635C10.2459 6.14167 10.2305 6.32176 10.2305 7.15017C10.2305 7.97858 10.2459 8.15867 10.349 8.524C10.6891 9.76919 11.4311 10.8857 12.4153 11.6318C12.8893 11.992 13.7911 12.4242 14.4043 12.5889C14.8681 12.7124 15.0072 12.7227 15.7956 12.7227C16.5788 12.7227 16.7231 12.7124 17.1868 12.5889C17.7382 12.4397 18.4751 12.1104 18.9543 11.7965C19.382 11.5135 20.1034 10.8034 20.4074 10.3609C21.9842 8.08149 21.7008 5.06628 19.7221 3.15219C19.2531 2.69939 18.8667 2.42154 18.3102 2.13854C17.2744 1.624 16.079 1.43362 14.9196 1.61371ZM14.5331 7.15017C14.5331 9.63026 14.5177 10.4432 14.4713 10.4432C14.3785 10.4432 13.8632 10.1397 13.5798 9.91841C13.2037 9.62512 12.8533 9.18776 12.6266 8.71952C12.3431 8.15353 12.2607 7.79335 12.2607 7.15017C12.2607 6.51729 12.3792 6.03362 12.6678 5.47791C12.9151 4.99939 13.6468 4.2636 14.1157 4.02176C14.2961 3.93429 14.4661 3.85711 14.4867 3.85711C14.5125 3.85711 14.5331 5.33899 14.5331 7.15017ZM17.4651 4.01147C18.3411 4.4797 18.9955 5.30297 19.2583 6.27545C19.3768 6.7231 19.3768 7.57724 19.2583 8.02489C19.0676 8.7504 18.6039 9.47075 18.0525 9.90297C17.7537 10.1345 17.2229 10.4432 17.1147 10.4432C17.0735 10.4432 17.058 9.52735 17.058 7.15017C17.058 4.77299 17.0735 3.85711 17.1147 3.85711C17.1456 3.85711 17.3054 3.92914 17.4651 4.01147Z" fill="black"/>
<path d="M282.539 3.52257C282.091 3.98051 282.091 3.9908 282.575 4.48476C283.034 4.953 283.106 4.953 283.575 4.48476C284.044 4.01653 284.044 3.94449 283.575 3.48141C283.101 3.00803 283.034 3.01317 282.539 3.52257Z" fill="black"/>
<path d="M120.862 4.34128C120.821 4.43904 120.341 5.54531 119.8 6.80079C119.259 8.05627 118.801 9.12137 118.79 9.17283C118.765 9.25515 118.811 9.2603 119.471 9.25001L120.177 9.23457L120.372 8.74576L120.568 8.25694L121.748 8.24151L122.928 8.23121L123.129 8.73032L123.335 9.23457L124.046 9.25001C124.433 9.25515 124.752 9.24486 124.752 9.22428C124.752 9.2037 124.273 8.05627 123.686 6.6773L122.614 4.16634H121.774H120.934L120.862 4.34128ZM122.124 6.26567C122.299 6.70303 122.433 7.06835 122.418 7.07864C122.408 7.09408 122.093 7.09408 121.722 7.08893L121.052 7.0735L121.387 6.23479C121.573 5.77171 121.743 5.41153 121.764 5.43725C121.789 5.45784 121.949 5.83345 122.124 6.26567Z" fill="black"/>
<path d="M124.957 6.7135V9.26048H125.575H126.194V7.42357C126.194 6.41507 126.209 5.60724 126.235 5.62782C126.256 5.6484 126.56 6.46652 126.915 7.44929L127.559 9.23475H128.121H128.677L129.332 7.42357L129.981 5.61753L130.007 7.42357L130.033 9.23475L130.666 9.25019L131.295 9.26562V6.7135V4.16652L130.285 4.17681L129.275 4.19225L128.724 5.77189C128.42 6.64146 128.162 7.36182 128.147 7.37726C128.136 7.38755 127.894 6.75981 127.616 5.97771C127.338 5.1956 127.075 4.46495 127.028 4.3569L126.956 4.16652H125.957H124.957V6.7135Z" fill="black"/>
<path d="M132.182 6.6993L132.198 9.23599L134.248 9.25143L136.294 9.26172V8.69572V8.12973H134.877H133.46V7.69237V7.25501H134.851H136.243V6.71474V6.17447H134.851H133.46V5.73711V5.29975H134.877H136.294V4.73375V4.16776H134.233H132.172L132.182 6.6993Z" fill="black"/>
<path d="M137.077 6.69806L137.092 9.23475L137.7 9.25019L138.303 9.26562V8.36518C138.303 7.37726 138.293 7.40813 138.648 7.40813C138.849 7.40813 138.813 7.37211 139.782 8.51439L140.39 9.23475L141.153 9.25019C141.57 9.25533 141.91 9.25019 141.91 9.22961C141.91 9.21417 141.549 8.79739 141.111 8.30858C140.673 7.81462 140.313 7.40299 140.313 7.38755C140.313 7.37726 140.39 7.35153 140.483 7.33095C140.91 7.23833 141.426 6.77524 141.57 6.34303C141.673 6.03945 141.673 5.59694 141.575 5.25735C141.472 4.90746 141.08 4.48039 140.715 4.31574C140.447 4.19739 140.405 4.19225 138.751 4.17681L137.066 4.16137L137.077 6.69806ZM140.189 5.47346C140.4 5.68442 140.426 5.9314 140.256 6.13721C140.101 6.33788 139.854 6.38419 139.05 6.36876L138.329 6.35332L138.313 5.82334L138.298 5.29851H139.158H140.014L140.189 5.47346Z" fill="black"/>
<path d="M142.178 6.69769L142.194 9.23438H142.838H143.482L143.497 6.69769L143.508 4.16614H142.838H142.168L142.178 6.69769Z" fill="black"/>
<path d="M145.936 4.22303C145.596 4.28992 145.091 4.54205 144.833 4.77874C144.565 5.02572 144.318 5.46822 144.204 5.89015C144.106 6.2812 144.101 7.14048 144.204 7.52639C144.452 8.468 145.091 9.0803 145.967 9.20894C146.559 9.29127 146.523 9.31185 146.776 8.8076C147.126 8.11297 147.121 8.1284 146.791 8.1284C146.642 8.1284 146.399 8.09238 146.25 8.05122C145.683 7.88142 145.415 7.4595 145.415 6.73914C145.415 6.21431 145.549 5.86956 145.853 5.62259C146.121 5.39619 146.379 5.34988 147.265 5.34988H148.043V4.75816V4.16643L147.105 4.17158C146.585 4.17672 146.059 4.19731 145.936 4.22303Z" fill="black"/>
<path d="M149.255 4.33358C149.219 4.4262 148.734 5.55304 148.178 6.8394C147.621 8.12575 147.168 9.196 147.168 9.22172C147.168 9.24745 147.482 9.25774 147.869 9.2526L148.57 9.23716L148.765 8.74834L148.961 8.25953L150.141 8.24409L151.321 8.2338L151.522 8.73291L151.728 9.23716L152.439 9.2526C152.826 9.25774 153.145 9.24745 153.145 9.22687C153.145 9.20629 152.666 8.05886 152.079 6.67989L151.007 4.16893H150.167H149.327L149.255 4.33358ZM150.517 6.2734C150.687 6.70562 150.821 7.07094 150.811 7.08638C150.801 7.09667 150.486 7.09667 150.115 7.09152L149.446 7.07608L149.78 6.23738C149.966 5.7743 150.136 5.41412 150.162 5.43984C150.182 5.46042 150.342 5.83604 150.517 6.2734Z" fill="black"/>
<path d="M153.352 6.71474V9.26172H153.97H154.588V7.63062C154.588 6.24651 154.599 6.00982 154.66 6.07156C154.696 6.11273 155.155 6.80736 155.67 7.61519C156.191 8.42302 156.649 9.12279 156.691 9.17425C156.763 9.25657 156.856 9.26172 157.52 9.25143L158.273 9.23599L158.288 6.6993L158.298 4.16776H157.654H157.01L157 5.73711L156.984 7.30646L155.98 5.7474L154.97 4.19349L154.161 4.17805L153.352 4.16261V6.71474Z" fill="black"/>
<path d="M259.233 4.31503C259.068 4.36649 258.826 4.48483 258.692 4.5723C258.553 4.65463 257.785 5.39042 256.976 6.19825L255.508 7.6647H255.771C256.178 7.6647 256.559 7.75217 256.925 7.93226C257.208 8.07118 257.461 8.29244 258.558 9.37297C259.8 10.6027 259.862 10.6542 260.032 10.6387C260.192 10.6233 260.382 10.4587 261.557 9.32152C263.062 7.86537 263.139 7.81391 263.907 7.70071L264.36 7.63897L262.83 6.13651C261.439 4.76783 261.258 4.61347 260.908 4.43852C260.552 4.26358 260.475 4.243 260.022 4.23271C259.646 4.22241 259.455 4.23785 259.233 4.31503Z" fill="black"/>
<path d="M46.0794 5.25124C44.9252 5.44162 44.1986 6.05393 43.9616 7.02126C43.8482 7.48435 41.8438 17.3121 41.8438 17.3996C41.8438 17.487 42.4363 17.4922 53.582 17.4922C66.1292 17.4922 65.7634 17.4973 66.4899 17.2401C67.0877 17.0342 67.4638 16.7049 67.7369 16.1698C67.8245 15.9897 68.1491 14.5078 68.9427 10.6282C69.5404 7.71589 70.0299 5.30269 70.0299 5.26668C70.0299 5.20493 68.1646 5.19464 58.1938 5.19979C51.6806 5.20493 46.2288 5.22551 46.0794 5.25124ZM67.6081 8.87361C67.6081 8.88905 67.4896 9.53737 67.3504 10.3143C67.2062 11.0913 67.0516 12.0329 67.0001 12.4085L66.9125 13.0929H66.6548H66.3972L66.4126 12.887L66.4281 12.6812L66.2941 12.8201C66.0571 13.0723 65.8664 13.1443 65.4181 13.1443C64.7946 13.1443 64.5009 12.9333 64.4185 12.4137C64.3206 11.7705 64.5731 10.9524 65.0059 10.515C65.3666 10.1497 65.6552 10.0622 66.325 10.0982L66.8249 10.1239L66.9073 9.59397C66.9537 9.30068 66.9897 9.01254 66.9897 8.95594C66.9897 8.85818 67.0207 8.84788 67.2989 8.84788C67.469 8.84788 67.6081 8.85818 67.6081 8.87361ZM49.4597 8.96108C49.5885 9.08972 49.47 9.51679 49.2896 9.58882C49.1557 9.64028 48.9805 9.62484 48.9135 9.55795C48.8104 9.45504 48.8362 9.12059 48.9547 9.00225C49.0681 8.88905 49.3618 8.86332 49.4597 8.96108ZM45.7084 8.98681C45.7084 9.01254 45.6517 9.34184 45.5796 9.72261C45.5074 10.1034 45.4508 10.4533 45.4508 10.4996C45.4508 10.6128 46.0846 10.6694 46.806 10.6179L47.3316 10.587L47.4501 9.84095C47.5171 9.43446 47.584 9.06399 47.5995 9.02283C47.6201 8.97137 47.718 8.95079 47.9551 8.95079C48.1354 8.95079 48.2848 8.96108 48.2848 8.97652C48.2848 8.99196 48.1715 9.63513 48.0323 10.4069C47.8932 11.1736 47.7438 12.0483 47.6923 12.3468C47.5737 13.1237 47.5789 13.1186 47.2027 13.1186C46.8266 13.1186 46.8369 13.2009 47.0688 11.9866C47.1667 11.4926 47.2337 11.0707 47.2182 11.045C47.2079 11.0244 46.7802 11.009 46.2752 11.009H45.358L45.3271 11.1479C45.3116 11.2302 45.2395 11.6521 45.1674 12.0895C45.0952 12.5269 45.0282 12.9385 45.0128 13.0002C44.987 13.1083 44.9561 13.1186 44.6521 13.1186C44.4356 13.1186 44.3171 13.098 44.3171 13.062C44.3171 13.026 44.3996 12.5835 44.4975 12.0689C44.5954 11.5544 44.7448 10.6951 44.8324 10.16C44.92 9.6197 44.9973 9.13088 45.0128 9.06399C45.0385 8.96108 45.0694 8.95079 45.3735 8.95079C45.559 8.95079 45.7084 8.96623 45.7084 8.98681ZM51.9279 10.2166C52.2886 10.4841 52.4071 10.8803 52.3092 11.4823C52.1856 12.2284 51.8558 12.7841 51.3972 13.0157C51.1911 13.1186 51.0725 13.1443 50.7221 13.1443C50.3254 13.1443 50.2893 13.134 50.145 12.9951C49.9595 12.815 49.9698 12.7944 49.8565 13.5559C49.7225 14.4924 49.7689 14.4049 49.4133 14.4049C49.1402 14.4049 49.1041 14.3946 49.1299 14.3123C49.1711 14.1837 49.707 11.2148 49.7792 10.726C49.8668 10.1085 49.8513 10.1342 50.1502 10.1342C50.3975 10.1342 50.4078 10.1394 50.3769 10.2629L50.346 10.3864L50.6397 10.232C50.9128 10.0879 50.9746 10.0776 51.3611 10.0931C51.6909 10.1034 51.8146 10.1342 51.9279 10.2166ZM54.8805 10.196C55.2051 10.3606 55.3082 10.5767 55.267 10.9935C55.2206 11.5132 55.303 11.472 54.2364 11.472C53.1182 11.472 53.1285 11.4669 53.1285 11.9506C53.1285 12.5526 53.4222 12.7944 54.0818 12.743C54.2828 12.7275 54.5456 12.6761 54.6692 12.6349C54.7929 12.5886 54.9011 12.5577 54.9114 12.568C54.9475 12.604 54.829 12.9848 54.7723 13.0208C54.6486 13.098 53.8293 13.1855 53.5098 13.1546C52.9997 13.1083 52.6905 12.887 52.5617 12.4805C52.4277 12.0638 52.5978 11.1736 52.8967 10.6951C53.1491 10.2989 53.6129 10.0879 54.2364 10.0828C54.5662 10.0828 54.7002 10.1085 54.8805 10.196ZM57.4209 10.1085C57.4724 10.1291 57.4827 10.1908 57.4621 10.3298L57.4312 10.5201L57.0756 10.5459C56.7407 10.5716 56.7149 10.5819 56.55 10.7723C56.3079 11.0501 56.2151 11.4052 55.9884 12.8973L55.9523 13.1186H55.674C55.4525 13.1186 55.3958 13.1031 55.3958 13.0363C55.3958 12.9899 55.4731 12.5217 55.571 11.9969C55.6689 11.4669 55.7771 10.834 55.8132 10.5819L55.8802 10.1342H56.1481H56.4161L56.3903 10.3503L56.3594 10.5716L56.4779 10.4224C56.5449 10.3452 56.6686 10.232 56.7562 10.1805C56.9107 10.0879 57.2611 10.0519 57.4209 10.1085ZM59.6521 10.1239C59.7242 10.1703 59.6675 10.5767 59.5954 10.5613C58.7864 10.3967 58.4411 10.4327 58.1835 10.726C57.8846 11.0656 57.6991 11.8528 57.8125 12.2747C57.9259 12.7069 58.2866 12.8407 58.8946 12.6864C59.3171 12.5783 59.3068 12.5732 59.2604 12.7893C59.2038 13.026 59.1677 13.0465 58.7245 13.1237C58.0083 13.2421 57.5188 13.098 57.3024 12.7069C57.189 12.5011 57.1735 12.4188 57.1838 12.0123C57.1993 11.0707 57.5909 10.3967 58.2659 10.1548C58.4772 10.0828 59.549 10.0571 59.6521 10.1239ZM62.0791 10.1805C62.4552 10.3503 62.4707 10.4893 62.2749 11.5955C62.2027 11.9969 62.1306 12.496 62.1048 12.7069L62.0688 13.0929L61.8266 13.1083L61.5792 13.1237V12.9076V12.6864L61.4401 12.8201C60.9867 13.2421 60.1725 13.2832 59.817 12.9025C59.6881 12.7635 59.6727 12.7121 59.6727 12.3931C59.6727 11.5647 60.1983 11.1633 61.2855 11.1633H61.7802L61.8163 10.9781C61.8626 10.7157 61.775 10.5613 61.5432 10.4996C61.2804 10.4275 61.1464 10.4275 60.6723 10.5201C60.4508 10.5613 60.2653 10.5922 60.2601 10.5819C60.2498 10.5767 60.2704 10.4738 60.3013 10.3555C60.3632 10.1085 60.358 10.1085 61.3216 10.0931C61.7544 10.0879 61.9039 10.1034 62.0791 10.1805ZM64.6555 10.1239C64.6967 10.1497 64.707 10.232 64.6864 10.3555L64.6555 10.5459H64.3721C63.7177 10.5459 63.5167 10.9009 63.29 12.4651L63.1972 13.0929L62.9035 13.1083C62.6768 13.1186 62.6098 13.1083 62.6098 13.0517C62.6098 13.0105 62.6665 12.7018 62.7335 12.3673C62.8005 12.0278 62.9087 11.4412 62.9654 11.0604C63.1303 10.0365 63.0839 10.1342 63.3879 10.1342H63.6507L63.6146 10.3503L63.5785 10.5716L63.728 10.4069C63.8053 10.3143 63.9444 10.2063 64.0268 10.16C64.1917 10.0776 64.5524 10.0571 64.6555 10.1239ZM49.3154 10.1548C49.3154 10.1703 49.2793 10.3503 49.2381 10.5562C49.1917 10.762 49.0732 11.4052 48.9753 11.9814C48.8774 12.5577 48.7847 13.0465 48.7692 13.0723C48.7383 13.1289 48.2488 13.134 48.2178 13.0774C48.2075 13.0568 48.2591 12.7172 48.3364 12.321C48.4188 11.9248 48.5322 11.2714 48.5992 10.8649L48.7125 10.1342H49.0114C49.1814 10.1342 49.3154 10.1445 49.3154 10.1548Z" fill="black"/>
<path d="M65.7156 10.5514C65.3292 10.7418 65.087 11.2254 65.0406 11.8943C64.9994 12.5478 65.19 12.7948 65.7002 12.7485C66.2 12.697 66.3906 12.4192 66.5658 11.4981C66.7668 10.4485 66.772 10.5668 66.504 10.4999C66.1691 10.4176 65.9578 10.4279 65.7156 10.5514Z" fill="black"/>
<path d="M50.7374 10.5183C50.4025 10.6418 50.3561 10.7241 50.2118 11.4754C50.0675 12.2369 50.0778 12.4478 50.2685 12.6382C50.3664 12.736 50.4437 12.7617 50.6653 12.7617C50.8147 12.7617 50.995 12.7308 51.0672 12.6948C51.2578 12.5971 51.5155 12.2317 51.6031 11.9282C51.6958 11.5989 51.7216 10.9866 51.6443 10.7962C51.5309 10.5132 51.1032 10.3845 50.7374 10.5183Z" fill="black"/>
<path d="M53.7708 10.5054C53.6883 10.5363 53.575 10.5981 53.5183 10.6444C53.4255 10.7267 53.2812 11.0046 53.2812 11.1126C53.2812 11.1435 53.5337 11.1641 53.9717 11.1641C54.554 11.1641 54.6674 11.1538 54.6931 11.0817C54.755 10.9222 54.7241 10.7576 54.6055 10.6186C54.5076 10.5054 54.4355 10.4746 54.2036 10.4643C54.049 10.454 53.8584 10.4694 53.7708 10.5054Z" fill="black"/>
<path d="M60.6548 11.6185C60.4126 11.7369 60.2838 11.9324 60.2529 12.2154C60.2168 12.519 60.325 12.6939 60.5723 12.7402C61.0413 12.8277 61.402 12.5859 61.572 12.0816C61.6338 11.9067 61.6802 11.7111 61.6802 11.6443C61.6802 11.5311 61.6648 11.5259 61.2577 11.5259C60.9537 11.5259 60.7785 11.5516 60.6548 11.6185Z" fill="black"/>
<path d="M176.772 5.23295C176.556 5.25868 175.664 5.45935 175.664 5.47993C175.664 5.49537 176.396 7.63071 176.406 7.6513C176.411 7.65644 176.54 7.62557 176.695 7.5844C177.091 7.4815 177.885 7.49179 178.323 7.60499C178.936 7.76964 179.354 8.00633 179.817 8.46427C180.271 8.91192 180.492 9.25666 180.662 9.7815L180.776 10.1211L181.884 9.8947C182.497 9.77635 183.012 9.66315 183.028 9.64772C183.079 9.59112 182.868 8.92221 182.651 8.45913C182.368 7.8674 182.085 7.45062 181.652 6.99268C180.554 5.82467 179.008 5.17635 177.401 5.20208C177.138 5.20722 176.86 5.22266 176.772 5.23295Z" fill="black"/>
<path d="M232.988 5.27496C232.03 5.42932 231.123 5.77406 230.53 6.20628C230.149 6.48927 229.654 7.05527 229.474 7.42059C229.02 8.33133 229.046 9.35013 229.541 10.0808C229.953 10.6931 230.489 11.0944 231.653 11.6759C232.669 12.1852 233.019 12.4271 233.163 12.7255C233.225 12.849 233.271 12.9982 233.271 13.06C233.271 13.4047 232.89 13.8215 232.426 13.981C232.21 14.0582 231.999 14.0736 231.21 14.0685C230.128 14.0633 229.871 14.0119 228.886 13.6208L228.33 13.3944L228.304 13.5282C228.289 13.6002 228.206 14.0891 228.119 14.6139C228.031 15.1387 227.954 15.6172 227.938 15.6841C227.902 15.8282 228.067 15.9054 228.773 16.0855C230.298 16.4714 232.241 16.4662 233.503 16.07C234.926 15.6224 235.935 14.6962 236.229 13.5591C236.502 12.4888 236.306 11.6295 235.621 10.9195C235.178 10.4564 234.822 10.2197 233.74 9.66914C232.715 9.14945 232.328 8.86646 232.246 8.56288C232.071 7.92999 232.813 7.46176 233.998 7.46176C234.761 7.46176 235.116 7.53894 236.312 7.95572C236.379 7.9763 236.42 7.80136 236.569 6.9112C236.667 6.32462 236.75 5.79464 236.75 5.74319C236.75 5.62485 236.425 5.50136 235.693 5.34699C235.034 5.20807 233.637 5.17205 232.988 5.27496Z" fill="black"/>
<path d="M210.275 5.50457C210.255 5.5869 210.285 5.61777 210.461 5.66408C211.331 5.88533 212.316 6.25066 212.97 6.59025L213.357 6.79092L214.671 11.499L215.979 16.207L217.551 16.1967L219.123 16.1813L221.426 10.8301C222.694 7.8869 223.734 5.46341 223.734 5.43768C223.74 5.4171 223.039 5.40166 222.178 5.40166H220.622L220.478 5.77213C220.401 5.97795 219.751 7.63992 219.04 9.46139L217.742 12.775L217.649 12.3428C217.603 12.1061 217.293 10.6191 216.969 9.03947C216.639 7.46497 216.34 6.10658 216.299 6.0294C216.258 5.94708 216.149 5.80815 216.057 5.72068C215.737 5.41195 215.644 5.40166 212.836 5.40166C210.352 5.40166 210.301 5.40166 210.275 5.50457Z" fill="black"/>
<path d="M224.95 5.46341C224.93 5.52515 223.121 16.1247 223.121 16.1813C223.121 16.1967 223.781 16.207 224.59 16.207H226.058L226.084 16.0887C226.099 16.0269 226.507 13.6498 226.986 10.8043C227.47 7.95893 227.877 5.58175 227.887 5.51486L227.913 5.40166H226.445C225.311 5.40166 224.966 5.4171 224.95 5.46341Z" fill="black"/>
<path d="M241.428 5.4737C241.113 5.57661 240.876 5.73611 240.727 5.95737C240.624 6.10144 236.471 15.4095 236.203 16.0938L236.156 16.207L237.707 16.1967L239.263 16.1813L239.557 15.4095L239.851 14.6377L241.752 14.6222L243.654 14.612L243.829 15.4095L244.004 16.207H245.359C246.622 16.207 246.72 16.2019 246.714 16.1144C246.714 16.0681 246.184 13.6395 245.54 10.7272L244.37 5.42739L243.004 5.4171C242 5.41195 241.587 5.42739 241.428 5.4737ZM242.736 10.3824C242.968 11.4475 243.159 12.3377 243.164 12.3583C243.164 12.384 242.618 12.3994 241.953 12.3994C241.289 12.3994 240.742 12.3788 240.742 12.3531C240.742 12.3325 241.031 11.571 241.381 10.6706C241.732 9.77012 242.072 8.88511 242.134 8.70502C242.201 8.53007 242.262 8.39629 242.278 8.41173C242.298 8.42716 242.499 9.31218 242.736 10.3824Z" fill="black"/>
<path d="M273.423 5.73694C272.521 5.93247 271.681 6.59108 271.258 7.44008C270.924 8.09869 270.939 7.88258 270.949 13.2338C270.965 18.0448 270.965 18.0859 271.068 18.0859C271.171 18.0859 271.171 18.0448 271.197 13.1978L271.222 8.30965L271.341 7.9752C271.702 6.97699 272.567 6.20518 273.541 6.01994C273.752 5.97878 274.438 5.96849 275.654 5.97878C277.38 5.99936 277.473 6.00451 277.777 6.1177C278.632 6.43158 279.333 7.1365 279.606 7.97005C279.704 8.27363 279.719 8.44343 279.74 9.64746C279.761 11.1654 279.719 11.4741 279.431 12.0709C279.111 12.7347 278.39 13.3367 277.612 13.5888C277.463 13.6352 276.793 13.6609 275.139 13.6815L272.871 13.7123L272.856 13.8255C272.846 13.913 272.871 13.949 272.964 13.9696C273.036 13.9902 274.051 13.9953 275.221 13.9799C277.055 13.9645 277.396 13.949 277.663 13.8718C278.756 13.5528 279.637 12.6627 279.936 11.577C280.075 11.083 280.08 8.57207 279.941 8.08325C279.606 6.87408 278.668 5.98392 277.473 5.74209C276.942 5.63404 273.917 5.62889 273.423 5.73694Z" fill="black"/>
<path d="M280.545 5.7377C280.463 5.93838 280.54 5.95896 281.395 5.97954C282.215 5.99497 282.215 5.99497 282.441 6.14934C282.565 6.23681 282.719 6.41175 282.792 6.53524L282.92 6.76679L282.936 10.3789L282.951 13.9961H283.075H283.204V10.3531V6.71019L283.07 6.44263C282.905 6.10817 282.591 5.83547 282.256 5.7377C281.89 5.62965 280.586 5.62965 280.545 5.7377Z" fill="black"/>
<path d="M285.247 5.69577C285.18 5.75751 285.211 5.90673 285.294 5.9376C285.34 5.95304 285.716 5.96848 286.134 5.96848C286.953 5.96848 287.293 6.04051 287.649 6.28235C287.741 6.34409 288.499 7.07474 289.334 7.90315C290.328 8.88593 290.921 9.44163 291.044 9.49308C291.292 9.59085 291.652 9.59085 291.9 9.49308C292.023 9.43648 292.621 8.88078 293.636 7.87228C295.538 5.98391 295.507 6.00449 296.599 5.97877C297.47 5.96333 297.537 5.94789 297.516 5.79868C297.501 5.69062 297.475 5.68548 296.883 5.67004C296.12 5.65461 295.651 5.74722 295.229 5.99935C295.022 6.11769 294.435 6.66311 293.456 7.63559C292.647 8.43827 291.931 9.13291 291.859 9.17921C291.694 9.28727 291.251 9.28727 291.086 9.17921C291.014 9.13291 290.271 8.41769 289.437 7.58928C287.834 5.99935 287.705 5.89644 287.082 5.73693C286.778 5.65975 285.314 5.62373 285.247 5.69577Z" fill="black"/>
<path d="M191.967 6.65072C191.951 6.69188 191.951 8.28182 191.956 10.1908L191.972 13.6588L192.116 13.9572C192.198 14.1167 192.343 14.3122 192.435 14.3843C192.621 14.5232 193.791 15.0326 193.868 15.0069C193.935 14.9863 194.471 13.7154 194.43 13.6742C194.409 13.6588 194.177 13.5559 193.919 13.453L193.44 13.2626V9.9232V6.58383H192.719C192.162 6.58383 191.987 6.59927 191.967 6.65072Z" fill="black"/>
<path d="M173.319 7.00222C172.376 8.00043 171.866 9.21475 171.815 10.5886C171.773 11.6382 171.938 12.4203 172.397 13.3311C172.747 14.036 173.608 15.0908 173.752 14.9982C173.783 14.9828 174.149 14.5969 174.556 14.1389L175.303 13.3156L174.999 12.9863C174.417 12.3483 174.144 11.5714 174.18 10.676C174.221 9.85793 174.515 9.15815 175.056 8.59216L175.303 8.32974L174.546 7.48589C174.123 7.0228 173.757 6.64204 173.726 6.64204C173.695 6.6369 173.51 6.80155 173.319 7.00222Z" fill="black"/>
<path d="M187.178 8.15175C186.498 8.31126 185.931 8.61998 185.488 9.07278C184.653 9.93206 184.292 11.2133 184.576 12.3298C184.71 12.8495 184.957 13.3898 185.05 13.3538C185.771 13.0759 191.202 10.6473 191.213 10.5958C191.233 10.4775 190.842 9.7211 190.584 9.39179C190.156 8.84638 189.651 8.50164 188.935 8.2598C188.435 8.09 187.647 8.04369 187.178 8.15175ZM188.569 9.72624C188.848 9.86003 189.213 10.1585 189.157 10.2099C189.11 10.2511 186.122 11.5271 186.065 11.5271C185.983 11.5271 186.034 11.0229 186.153 10.6884C186.271 10.3334 186.663 9.92692 187.049 9.75712C187.642 9.48956 188.054 9.48441 188.569 9.72624Z" fill="black"/>
<path d="M197.429 8.12827C197.285 8.154 197.105 8.2003 197.032 8.22603L196.898 8.27749L197.146 9.01328C197.357 9.64102 197.409 9.74393 197.491 9.72849C197.548 9.7182 197.774 9.70791 198.001 9.70791C198.573 9.70276 198.918 9.84169 199.315 10.2379C199.537 10.4591 199.645 10.6186 199.727 10.8502C199.794 11.0251 199.866 11.1641 199.897 11.1641C199.928 11.1641 200.274 11.1023 200.665 11.0251C201.15 10.9274 201.376 10.8656 201.376 10.8193C201.376 10.6495 201.144 10.0784 200.938 9.74907C200.32 8.75601 199.305 8.154 198.161 8.10254C197.903 8.09225 197.573 8.10254 197.429 8.12827Z" fill="black"/>
<path d="M253.828 9.34691C252.715 10.4686 252.586 10.659 252.499 11.2919C252.437 11.7344 252.504 12.1717 252.705 12.5988C252.834 12.8767 253.014 13.0876 253.849 13.9315L254.838 14.9297L255.534 14.904C256.611 14.8679 256.518 14.9245 258.059 13.3964C258.904 12.5628 259.445 12.0637 259.568 12.0122C259.811 11.9145 260.223 11.9145 260.47 12.0122C260.589 12.0637 261.109 12.5422 261.923 13.35C263.449 14.8679 263.433 14.8577 264.386 14.8731L265.02 14.8834L265.974 13.9366C266.499 13.4169 266.989 12.8921 267.061 12.7686C267.468 12.0791 267.483 11.1684 267.092 10.4943C267.02 10.3657 266.525 9.82544 265.999 9.29546L265.041 8.32298L264.371 8.34356C263.794 8.36414 263.67 8.37958 263.469 8.48248C263.33 8.55452 262.712 9.11537 261.918 9.88204C261.12 10.6538 260.522 11.1941 260.408 11.2404C260.171 11.3382 259.857 11.3382 259.62 11.2404C259.496 11.189 258.96 10.695 258.136 9.88204C257.203 8.96101 256.776 8.5751 256.59 8.48248C256.358 8.37443 256.25 8.35899 255.585 8.34356L254.838 8.32298L253.828 9.34691Z" fill="black"/>
<path d="M195.435 9.2411C194.374 10.3937 194.24 12.138 195.116 13.4809C195.322 13.7999 195.683 14.191 195.724 14.1447C195.739 14.1344 195.966 13.872 196.239 13.5684L196.734 13.0127L196.512 12.7091C195.976 11.9836 196.007 10.9803 196.579 10.3268L196.749 10.1364L196.249 9.57041C195.971 9.26168 195.724 9.00441 195.698 9.00441C195.672 9.00441 195.554 9.11247 195.435 9.2411Z" fill="black"/>
<path d="M291.09 10.112C290.998 10.1531 290.194 10.8941 289.302 11.7585C287.555 13.4616 287.468 13.5285 286.808 13.6314C286.623 13.6623 286.19 13.688 285.845 13.688H285.211V13.8167V13.9453H286.056C287.03 13.9453 287.365 13.8733 287.834 13.5543C287.983 13.4514 288.787 12.7001 289.611 11.8871C290.575 10.9352 291.168 10.3898 291.26 10.3641C291.338 10.3487 291.497 10.3435 291.611 10.359C291.843 10.3898 291.765 10.3178 293.919 12.4377C295.367 13.863 295.568 13.9659 296.862 13.935C297.439 13.9196 297.501 13.9093 297.516 13.8218C297.526 13.7704 297.506 13.7086 297.464 13.6829C297.428 13.6572 297.093 13.6366 296.717 13.6366C295.996 13.6366 295.651 13.5594 295.285 13.3124C295.202 13.2558 294.455 12.5406 293.636 11.7276C292.064 10.1737 291.889 10.0348 291.472 10.0399C291.358 10.0399 291.188 10.0708 291.09 10.112Z" fill="black"/>
<path d="M180.706 11.7418C180.495 12.5496 179.83 13.3574 179.063 13.7588C178.372 14.1241 177.45 14.2476 176.718 14.0778C176.548 14.0366 176.404 14.0058 176.399 14.0109C176.378 14.0366 175.662 16.172 175.672 16.1823C175.682 16.1926 175.837 16.2337 176.022 16.28C178.733 16.9438 181.454 15.6986 182.623 13.2494C182.865 12.7451 183.082 12.0711 183.02 12.0145C183.005 11.9991 182.541 11.891 181.995 11.7829C181.443 11.6697 180.943 11.5668 180.882 11.5514C180.784 11.5308 180.758 11.5565 180.706 11.7418Z" fill="black"/>
<path d="M199.829 12.0106C199.829 12.1959 199.51 12.7104 199.247 12.9522C198.783 13.369 198.35 13.4874 197.516 13.4153C197.402 13.405 197.376 13.4565 197.145 14.1357L196.902 14.8715L197.088 14.9281C197.191 14.9589 197.546 15.0001 197.876 15.0104C198.582 15.0413 199.046 14.9384 199.649 14.6245C200.113 14.3827 200.767 13.7395 201.004 13.2918C201.174 12.9728 201.375 12.4428 201.375 12.3245C201.375 12.2679 201.03 12.1856 200.025 11.99C199.891 11.9643 199.829 11.9695 199.829 12.0106Z" fill="black"/>
<path d="M259.834 12.6159C259.777 12.6468 259.154 13.2437 258.443 13.9383C256.933 15.4305 256.84 15.4922 256.01 15.5282C255.748 15.5385 255.531 15.5694 255.531 15.59C255.531 15.6775 258.535 18.5589 258.793 18.7184C259.2 18.9705 259.788 19.0786 260.277 18.9962C260.988 18.8728 261.158 18.7441 262.848 17.0564L264.368 15.5385H264.08C263.74 15.5385 263.322 15.4253 263.003 15.2452C262.874 15.1732 262.215 14.5609 261.534 13.892C260.854 13.2179 260.246 12.6417 260.184 12.6108C260.045 12.5388 259.968 12.5388 259.834 12.6159Z" fill="black"/>
<path d="M189.304 12.8893C188.758 13.5274 187.557 13.7229 186.986 13.2752C186.867 13.1826 186.857 13.1826 186.785 13.2649C186.609 13.4656 186.022 14.4175 186.048 14.4535C186.099 14.5462 186.841 14.8703 187.156 14.9424C187.583 15.0453 188.274 15.0453 188.701 14.9424C188.887 14.9012 189.232 14.7726 189.474 14.6542C189.825 14.4896 190 14.3609 190.34 14.0213C190.572 13.7898 190.763 13.5634 190.763 13.5274C190.763 13.4656 189.598 12.6526 189.526 12.6578C189.51 12.6629 189.413 12.7658 189.304 12.8893Z" fill="black"/>
<path d="M128 15.5919V18.1132L128.119 18.1389C128.18 18.1543 129.113 18.1595 130.19 18.1543L132.148 18.1389L132.164 17.5832L132.179 17.0326H130.731H129.288V16.6004C129.288 16.2557 129.304 16.163 129.371 16.1373C129.417 16.1219 130.051 16.1064 130.788 16.1064H132.122V15.5919V15.0774L130.721 15.0671L129.314 15.0516L129.299 14.6246L129.283 14.2026H130.731H132.174V13.6366V13.0707H130.087H128V15.5919Z" fill="black"/>
<path d="M132.359 13.1291C132.38 13.1651 132.818 13.7157 133.333 14.3537C133.848 14.9917 134.281 15.5372 134.302 15.5732C134.327 15.6143 133.972 16.098 133.359 16.8595C132.823 17.5336 132.38 18.0996 132.38 18.1253C132.38 18.1459 132.72 18.1562 133.142 18.151L133.9 18.1356L134.467 17.3792C134.781 16.9624 135.059 16.628 135.085 16.6383C135.116 16.6434 135.394 16.983 135.708 17.3947L136.275 18.1356L137.058 18.151C137.491 18.1562 137.842 18.1459 137.842 18.1253C137.842 18.0996 137.399 17.5284 136.857 16.8544C136.322 16.1803 135.889 15.5989 135.899 15.568C135.914 15.532 136.358 14.9712 136.883 14.3126C137.409 13.6591 137.842 13.1085 137.842 13.0931C137.842 13.0777 137.502 13.0725 137.084 13.0777L136.327 13.0931L135.744 13.8392C135.425 14.2508 135.147 14.5904 135.126 14.5956C135.1 14.6007 134.817 14.2611 134.492 13.8392L133.9 13.0674H133.111C132.493 13.0674 132.328 13.0828 132.359 13.1291Z" fill="black"/>
<path d="M138.057 15.6L138.073 18.1367H138.691H139.309L139.325 17.3289L139.335 16.5262L140.33 16.5056C141.437 16.485 141.669 16.4284 142.082 16.0888C142.623 15.6463 142.808 14.7407 142.509 14.0307C142.396 13.7477 141.994 13.3515 141.69 13.2177C141.427 13.0994 141.381 13.0942 139.732 13.0788L138.047 13.0633L138.057 15.6ZM141.195 14.396C141.37 14.5915 141.401 14.9208 141.262 15.1215C141.108 15.3376 140.891 15.3839 140.082 15.3839H139.335V14.7871V14.1953L140.19 14.2108L141.046 14.2262L141.195 14.396Z" fill="black"/>
<path d="M143.21 15.6016L143.225 18.1383H143.843H144.462L144.487 17.2379L144.513 16.3374H144.771H145.023L145.637 17.0578C145.971 17.454 146.327 17.8656 146.42 17.9685L146.595 18.1641H147.316C147.749 18.1641 148.043 18.1435 148.043 18.1126C148.043 18.0869 147.682 17.665 147.244 17.1761L146.451 16.286L146.713 16.2037C147.27 16.0184 147.672 15.5862 147.785 15.0408C147.945 14.2947 147.595 13.5692 146.92 13.2399L146.626 13.0958L144.91 13.0804L143.199 13.065L143.21 15.6016ZM146.363 14.3513C146.657 14.6292 146.564 15.0562 146.178 15.2003C146.002 15.2672 145.801 15.2826 145.235 15.2723L144.513 15.2569L144.498 14.7269L144.482 14.1969L145.358 14.2124C146.198 14.2278 146.234 14.233 146.363 14.3513Z" fill="black"/>
<path d="M148.362 15.6L148.377 18.1367H150.438H152.5L152.515 17.581L152.531 17.0305H151.083H149.635L149.65 16.5777L149.666 16.13L151.047 16.1146L152.422 16.1043V15.5897V15.0752H151.031H149.64V14.6378V14.2005L151.072 14.1902L152.5 14.1747L152.515 13.619L152.531 13.0685H150.438H148.352L148.362 15.6Z" fill="black"/>
<path d="M154.212 13.1243C153.717 13.2426 153.3 13.5462 153.109 13.9321C152.985 14.1842 152.965 14.2872 152.965 14.6628C152.965 15.342 153.176 15.7227 153.686 15.9903C153.928 16.1189 154.001 16.1292 154.897 16.1549C155.876 16.1858 156.031 16.2167 156.134 16.4122C156.221 16.5769 156.191 16.7209 156.036 16.8804L155.887 17.0297H154.485H153.089L153.104 17.5802L153.119 18.1359L154.356 18.1514C155.036 18.1565 155.783 18.1411 156.02 18.1153C156.763 18.0227 157.18 17.7037 157.376 17.076C157.572 16.4431 157.463 15.8822 157.061 15.486C156.716 15.1361 156.479 15.0744 155.454 15.0744C154.511 15.0744 154.325 15.0281 154.232 14.7657C154.191 14.637 154.191 14.565 154.243 14.4672C154.356 14.2203 154.475 14.1997 155.722 14.1997H156.881L157.128 13.6646C157.262 13.3713 157.371 13.1191 157.371 13.0986C157.371 13.0523 154.433 13.0728 154.212 13.1243Z" fill="black"/>
<path d="M158.811 13.1508C157.982 13.3721 157.59 13.9175 157.636 14.7871C157.662 15.2553 157.77 15.5126 158.049 15.7801C158.363 16.0837 158.533 16.1249 159.584 16.1557C160.615 16.1866 160.718 16.2123 160.826 16.4696C160.867 16.5777 160.867 16.6445 160.811 16.7526C160.687 17.015 160.599 17.0305 159.131 17.0305H157.776L157.791 17.581L157.807 18.1367H159.327C161.068 18.1316 161.228 18.1058 161.635 17.7354C161.913 17.473 162.037 17.2363 162.104 16.8298C162.202 16.2175 162.001 15.6206 161.594 15.353C161.249 15.1267 160.981 15.0752 160.079 15.0752C159.347 15.0752 159.229 15.0649 159.084 14.9723C158.801 14.8025 158.791 14.4217 159.069 14.2777C159.188 14.2159 159.44 14.2005 160.383 14.2005H161.542L161.8 13.6551C161.944 13.3515 162.058 13.0994 162.058 13.0891C162.058 13.0788 161.393 13.0685 160.579 13.0736C159.445 13.0736 159.028 13.0942 158.811 13.1508Z" fill="black"/>
<path d="M108.316 13.894C108.316 13.9197 108.347 13.9455 108.389 13.9455C108.44 13.9455 108.471 14.0175 108.481 14.1616C108.492 14.285 108.523 14.3828 108.548 14.3828C108.579 14.3828 108.605 14.285 108.615 14.1616C108.626 14.0175 108.656 13.9455 108.708 13.9455C108.749 13.9455 108.78 13.9197 108.78 13.894C108.78 13.8631 108.677 13.8425 108.548 13.8425C108.419 13.8425 108.316 13.8631 108.316 13.894Z" fill="black"/>
<path d="M108.893 14.1069C108.908 14.3745 108.996 14.462 109.027 14.2458L109.047 14.1378L109.125 14.2458C109.186 14.3333 109.217 14.3488 109.274 14.2973C109.315 14.2664 109.351 14.1995 109.351 14.1532C109.356 14.1069 109.372 14.1378 109.393 14.2201C109.444 14.462 109.526 14.4054 109.542 14.1069C109.557 13.8702 109.547 13.8394 109.46 13.8394C109.393 13.8394 109.336 13.9011 109.289 14.004L109.222 14.1635L109.145 14.004C109.099 13.9062 109.032 13.8394 108.975 13.8394C108.888 13.8394 108.877 13.8754 108.893 14.1069Z" fill="black"/>
<path d="M25.3373 16.6718C25.1724 16.749 24.992 16.8262 24.9405 16.8416C24.8014 16.8776 24.8117 16.9548 24.9663 17.0217C25.0384 17.0577 25.1208 17.14 25.1466 17.2172C25.2033 17.3561 25.2187 21.03 25.1672 21.1689C25.1466 21.2152 25.0487 21.2667 24.9353 21.2821C24.8168 21.3027 24.7344 21.3438 24.7344 21.385C24.7344 21.4416 24.8735 21.457 25.43 21.457C26.0123 21.457 26.1256 21.4467 26.1256 21.3799C26.1256 21.3387 26.0793 21.3027 26.0174 21.3027C25.9608 21.3027 25.868 21.2769 25.8113 21.2512C25.7186 21.1998 25.7134 21.1174 25.7134 18.8843C25.7134 17.6134 25.698 16.5637 25.6773 16.5535C25.6516 16.5432 25.5022 16.5946 25.3373 16.6718Z" fill="black"/>
<path d="M29.8226 16.67C29.6577 16.7472 29.4773 16.8243 29.4258 16.8398C29.2867 16.8758 29.297 16.953 29.4516 17.0199C29.5237 17.0559 29.6062 17.1382 29.6319 17.2154C29.6989 17.3852 29.6989 20.3644 29.6319 20.9407C29.5752 21.4295 29.6062 21.5118 29.8071 21.4089C29.9102 21.3523 29.9669 21.3523 30.1833 21.4346C30.5234 21.5684 31.0747 21.5633 31.389 21.4192C32.0486 21.1208 32.466 20.2769 32.3166 19.5411C32.1414 18.7127 31.3581 18.2856 30.6728 18.651C30.5388 18.723 30.3791 18.8156 30.3172 18.8619L30.1987 18.9443V17.7608C30.1987 17.1073 30.1833 16.5619 30.1627 16.5516C30.1369 16.5413 29.9875 16.5928 29.8226 16.67ZM31.1829 18.9648C31.4097 19.078 31.6931 19.4485 31.7755 19.7521C31.9301 20.2666 31.7394 20.9355 31.3684 21.2031C31.1056 21.3935 30.7037 21.414 30.4873 21.2443C30.2296 21.0384 30.1987 20.9149 30.1987 19.9991C30.1987 19.0523 30.2039 19.042 30.5955 18.9082C30.8016 18.8362 30.9562 18.8516 31.1829 18.9648Z" fill="black"/>
<path d="M280.524 16.9545V17.1346H280.215C279.828 17.1346 279.699 17.2375 279.699 17.5462C279.699 17.8755 279.828 17.963 280.266 17.9475L280.627 17.9321V17.3507C280.627 17.0008 280.606 16.7744 280.575 16.7744C280.549 16.7744 280.524 16.8567 280.524 16.9545ZM280.41 17.2169C280.508 17.2478 280.524 17.2838 280.524 17.5205C280.524 17.8292 280.493 17.8549 280.137 17.8549C279.869 17.8549 279.792 17.7726 279.813 17.5102C279.833 17.2426 280.065 17.1294 280.41 17.2169Z" fill="black"/>
<path d="M281.504 17.3561V17.9375H281.87C282.194 17.9324 282.246 17.9169 282.339 17.8037C282.416 17.706 282.437 17.6288 282.416 17.4744C282.375 17.1966 282.267 17.1245 281.901 17.1451L281.607 17.1605V16.9959C281.607 16.9084 281.586 16.8158 281.555 16.8004C281.525 16.7798 281.504 16.9753 281.504 17.3561ZM282.225 17.2892C282.349 17.4127 282.359 17.6339 282.241 17.7626C282.179 17.8294 282.086 17.8552 281.88 17.8552H281.607V17.5516V17.2429L281.777 17.2223C281.865 17.212 281.983 17.1966 282.035 17.1966C282.081 17.1914 282.169 17.2326 282.225 17.2892Z" fill="black"/>
<path d="M297.32 17.3653C297.32 17.921 297.325 17.957 297.423 17.957C297.521 17.957 297.526 17.921 297.526 17.3653C297.526 16.8096 297.521 16.7736 297.423 16.7736C297.325 16.7736 297.32 16.8096 297.32 17.3653Z" fill="black"/>
<path d="M284.201 16.8921C284.185 16.9333 284.185 17.1802 284.191 17.4478L284.206 17.9315L284.464 17.9469C284.814 17.9726 285.144 17.916 285.237 17.8234C285.345 17.7154 285.335 17.561 285.211 17.4581C285.118 17.3758 285.118 17.3655 285.19 17.278C285.329 17.1288 285.247 16.9436 285.015 16.8818C284.737 16.7995 284.237 16.8098 284.201 16.8921ZM284.979 17.1597C284.979 17.2471 284.938 17.2626 284.711 17.278C284.448 17.2934 284.438 17.2883 284.438 17.1597C284.438 17.031 284.448 17.0259 284.711 17.0413C284.938 17.0567 284.979 17.0722 284.979 17.1597ZM285.03 17.6227C285.03 17.7102 284.989 17.7257 284.737 17.7411C284.443 17.7565 284.438 17.7514 284.438 17.6227C284.438 17.4941 284.443 17.489 284.737 17.5044C284.989 17.5198 285.03 17.5353 285.03 17.6227Z" fill="black"/>
<path d="M291.062 16.8971C290.748 17.036 290.671 17.5505 290.928 17.8078C291.052 17.9262 291.124 17.957 291.309 17.957C291.675 17.957 291.861 17.9056 291.861 17.8027C291.861 17.7203 291.825 17.7152 291.552 17.7358C291.165 17.7718 291.036 17.6843 291.036 17.3859C291.036 17.1235 291.176 17.0309 291.567 17.0309C291.825 17.0309 291.866 17.0206 291.851 16.9382C291.835 16.8662 291.773 16.8508 291.526 16.8405C291.351 16.8302 291.15 16.8559 291.062 16.8971Z" fill="black"/>
<path d="M7.47253 16.9883C7.34886 17.122 7.34371 17.225 7.45192 17.3793C7.54467 17.5131 7.78685 17.5337 7.90537 17.4102C8.02904 17.2918 8.00843 17.05 7.87445 16.9574C7.71471 16.8442 7.5962 16.8545 7.47253 16.9883Z" fill="black"/>
<path d="M22.0883 16.9996C21.4493 17.2312 20.9907 17.6274 20.7176 18.1831C20.2436 19.1401 20.5424 20.4573 21.3772 21.0696C21.8873 21.4453 22.6551 21.615 23.3301 21.507C23.7939 21.435 24.1649 21.3321 24.2886 21.2394C24.3762 21.1725 24.5565 20.3544 24.4998 20.267C24.4432 20.1743 24.3813 20.2258 24.3195 20.411C24.0567 21.2291 23.1807 21.5636 22.3562 21.1571C21.7276 20.8484 21.2741 20.1949 21.1865 19.4694C21.0268 18.1265 21.707 17.154 22.8561 17.0922C23.6341 17.0511 24.0979 17.3032 24.2989 17.8846C24.3349 17.9927 24.4019 18.0904 24.4432 18.1007C24.5101 18.1162 24.5204 18.0544 24.4947 17.7148C24.4844 17.4936 24.4638 17.2878 24.4535 17.2517C24.4432 17.2209 24.2422 17.1282 24.0052 17.0511C23.3714 16.8453 22.583 16.8247 22.0883 16.9996Z" fill="black"/>
<path d="M294.628 16.9139C294.608 16.9293 294.592 16.9911 294.592 17.0425C294.592 17.094 294.556 17.1351 294.515 17.1351C294.474 17.1351 294.438 17.1711 294.438 17.2123C294.438 17.2535 294.474 17.2895 294.515 17.2895C294.571 17.2895 294.592 17.3512 294.592 17.5365C294.592 17.7166 294.618 17.8143 294.69 17.8761C294.814 17.9893 295.133 17.9738 295.133 17.8555C295.133 17.8092 295.097 17.7834 295.04 17.7937C294.891 17.8195 294.798 17.7063 294.798 17.4902C294.798 17.2998 294.809 17.2895 294.953 17.2895C295.056 17.2895 295.107 17.2638 295.107 17.2123C295.107 17.1609 295.056 17.1351 294.953 17.1351C294.824 17.1351 294.798 17.1145 294.798 17.0065C294.798 16.883 294.705 16.8315 294.628 16.9139Z" fill="black"/>
<path d="M2.32031 17.0422C2.32031 17.1142 2.36154 17.1348 2.49036 17.1348C2.88198 17.14 2.88713 17.1657 2.88713 19.2393C2.88713 21.2049 2.89228 21.1637 2.58826 21.2306C2.34608 21.282 2.32031 21.2975 2.32031 21.3849C2.32031 21.4621 2.43883 21.4673 3.57246 21.4467C4.90705 21.421 5.0874 21.3901 5.63876 21.1122C5.99946 20.9321 6.37047 20.5359 6.56112 20.1295C6.71571 19.8053 6.72602 19.7487 6.72602 19.2187C6.72602 18.6887 6.71571 18.6321 6.56112 18.3028C6.26226 17.67 5.65422 17.2069 4.90705 17.0319C4.73701 16.9908 4.18565 16.965 3.47456 16.9599C2.40791 16.9547 2.32031 16.9599 2.32031 17.0422ZM4.99465 17.3767C5.56147 17.6494 5.92217 18.1742 6.03038 18.8791C6.14374 19.584 5.8964 20.4227 5.47902 20.7932C4.93282 21.2666 3.89709 21.4004 3.63429 21.0299C3.56731 20.9373 3.557 20.6286 3.557 19.0541V17.1914L3.80434 17.176C4.21657 17.1503 4.69578 17.2274 4.99465 17.3767Z" fill="black"/>
<path d="M272.904 17.6989C272.909 17.9973 272.924 18.1723 272.945 18.0951C272.976 17.9561 272.991 17.9459 273.29 17.9407C273.465 17.9356 273.64 17.8995 273.687 17.8635C273.877 17.704 273.831 17.2255 273.615 17.1586C273.563 17.138 273.378 17.1329 273.208 17.1432L272.898 17.1586L272.904 17.6989ZM273.62 17.2872C273.744 17.4107 273.754 17.5805 273.64 17.74C273.568 17.8429 273.522 17.8584 273.269 17.8429L272.976 17.8275V17.5445V17.2615L273.156 17.2306C273.465 17.174 273.512 17.1792 273.62 17.2872Z" fill="black"/>
<path d="M274.133 17.2382C274.03 17.3411 273.989 17.6653 274.071 17.7836C274.2 17.9791 274.659 18.0203 274.875 17.8505C274.978 17.7682 275.009 17.7013 275.009 17.5418C275.009 17.2485 274.875 17.1353 274.52 17.1353C274.303 17.1353 274.21 17.161 274.133 17.2382ZM274.829 17.2897C274.947 17.3874 274.927 17.7373 274.808 17.8042C274.679 17.8711 274.36 17.8711 274.231 17.8042C274.082 17.7219 274.097 17.3771 274.252 17.2639C274.38 17.1713 274.705 17.1867 274.829 17.2897Z" fill="black"/>
<path d="M275.272 17.4014C275.329 17.5506 275.401 17.7256 275.422 17.7873C275.504 17.9931 275.571 17.9623 275.71 17.6484C275.788 17.4786 275.865 17.3397 275.88 17.3397C275.901 17.3397 275.978 17.4683 276.055 17.6227C276.133 17.777 276.215 17.9057 276.246 17.9057C276.277 17.9057 276.354 17.7822 276.421 17.6278C276.586 17.2522 276.622 17.1339 276.566 17.1339C276.54 17.1339 276.463 17.2728 276.401 17.4426C276.339 17.6124 276.267 17.7513 276.246 17.7513C276.225 17.7513 276.153 17.6124 276.076 17.4426C276.004 17.2728 275.921 17.1339 275.896 17.1339C275.87 17.1339 275.788 17.2779 275.71 17.4529C275.628 17.6381 275.556 17.7462 275.525 17.7204C275.499 17.6947 275.437 17.5609 275.38 17.4169C275.324 17.2779 275.257 17.1544 275.221 17.1441C275.185 17.1339 275.205 17.2368 275.272 17.4014Z" fill="black"/>
<path d="M276.87 17.2675C276.725 17.4528 276.73 17.674 276.89 17.8284C276.988 17.9313 277.065 17.957 277.261 17.957C277.395 17.957 277.545 17.9313 277.586 17.9056C277.642 17.8696 277.57 17.8541 277.344 17.8541C277.019 17.8541 276.864 17.7769 276.864 17.6174C276.864 17.5608 276.952 17.5454 277.277 17.5454C277.679 17.5454 277.689 17.5403 277.689 17.4219C277.689 17.247 277.508 17.1338 277.22 17.1338C277.019 17.1338 276.957 17.1595 276.87 17.2675ZM277.472 17.2675C277.689 17.4168 277.617 17.4939 277.256 17.4939C276.88 17.4939 276.813 17.4425 276.967 17.2881C277.091 17.1646 277.313 17.1543 277.472 17.2675Z" fill="black"/>
<path d="M278.01 17.5727L278.021 17.9844L278.046 17.6293L278.077 17.2743L278.283 17.2074L278.49 17.1457L278.247 17.1508L278 17.1611L278.01 17.5727Z" fill="black"/>
<path d="M278.668 17.236C278.508 17.3955 278.528 17.7145 278.698 17.8483C278.843 17.9615 279.167 17.9872 279.363 17.9049C279.435 17.874 279.373 17.8586 279.147 17.8586C278.822 17.8534 278.668 17.7762 278.668 17.6167C278.668 17.5601 278.755 17.5447 279.08 17.5447C279.456 17.5447 279.492 17.5344 279.492 17.4418C279.492 17.2514 279.312 17.1331 279.028 17.1331C278.838 17.1331 278.745 17.1588 278.668 17.236ZM279.276 17.2668C279.497 17.4212 279.42 17.4932 279.028 17.4932C278.75 17.4932 278.668 17.4778 278.668 17.4212C278.668 17.3183 278.869 17.1845 279.028 17.1845C279.1 17.1845 279.214 17.2205 279.276 17.2668Z" fill="black"/>
<path d="M282.743 17.5441C282.954 17.9403 282.96 17.9557 282.872 18.0535C282.82 18.1101 282.717 18.1667 282.64 18.177C282.527 18.1924 282.522 18.1976 282.599 18.2336C282.789 18.321 282.934 18.1821 283.202 17.647C283.346 17.364 283.439 17.1325 283.408 17.1325C283.382 17.1325 283.279 17.2868 283.186 17.4721C283.016 17.8116 283.016 17.8116 282.934 17.6933C282.893 17.6264 282.805 17.4721 282.743 17.3486C282.681 17.2302 282.609 17.1325 282.578 17.1325C282.547 17.1325 282.625 17.3177 282.743 17.5441Z" fill="black"/>
<path d="M285.678 17.2121C285.678 17.2687 285.74 17.2892 285.93 17.2892C286.09 17.2892 286.204 17.315 286.245 17.3664C286.301 17.4333 286.27 17.4436 286.028 17.4436C285.632 17.4436 285.446 17.6237 285.611 17.8501C285.678 17.953 285.724 17.9581 286.08 17.9427L286.477 17.9221L286.492 17.6134C286.513 17.1966 286.451 17.1349 286.008 17.1349C285.75 17.1349 285.678 17.1503 285.678 17.2121ZM286.296 17.67C286.296 17.7575 286.183 17.8038 285.987 17.8038C285.833 17.8038 285.755 17.7369 285.807 17.6494C285.858 17.5671 286.296 17.5825 286.296 17.67Z" fill="black"/>
<path d="M286.809 17.555C286.809 17.9152 286.819 17.9615 286.901 17.9461C286.968 17.9358 286.994 17.8689 287.004 17.6373C287.02 17.3904 287.035 17.344 287.133 17.3183C287.473 17.2308 287.582 17.3286 287.582 17.7248C287.582 17.9255 287.597 17.9615 287.674 17.9461C287.741 17.9306 287.767 17.8689 287.777 17.6167C287.798 17.1794 287.741 17.1331 287.216 17.1382L286.809 17.1434V17.555Z" fill="black"/>
<path d="M288.103 17.2675C287.866 17.5711 288.062 17.957 288.453 17.957C288.711 17.957 288.819 17.9159 288.819 17.8181C288.819 17.7564 288.778 17.7461 288.634 17.7667C288.386 17.8078 288.252 17.7358 288.252 17.5557C288.252 17.355 288.34 17.2881 288.598 17.2881C288.762 17.2881 288.819 17.2675 288.819 17.2109C288.819 17.1492 288.752 17.1338 288.515 17.1338C288.247 17.1338 288.196 17.1492 288.103 17.2675Z" fill="black"/>
<path d="M289.078 17.2366C288.918 17.3961 288.939 17.7151 289.109 17.8489C289.325 18.0187 289.835 17.9827 289.964 17.782C289.985 17.7511 290.005 17.6276 290.005 17.5093C290.005 17.2263 289.876 17.1337 289.48 17.1337C289.248 17.1337 289.155 17.1594 289.078 17.2366ZM289.763 17.3961C289.845 17.5299 289.763 17.746 289.608 17.782C289.33 17.854 289.073 17.5607 289.237 17.3601C289.32 17.2572 289.691 17.2829 289.763 17.3961Z" fill="black"/>
<path d="M292.123 17.2675C291.886 17.5711 292.081 17.957 292.468 17.957C292.782 17.957 292.993 17.9004 292.993 17.8181C292.993 17.7564 292.942 17.7461 292.741 17.7769C292.488 17.813 292.272 17.7512 292.272 17.6483C292.272 17.6174 292.437 17.5969 292.633 17.5969H292.993V17.4528C292.993 17.2264 292.854 17.1338 292.514 17.1338C292.267 17.1338 292.215 17.1492 292.123 17.2675ZM292.689 17.2881C292.859 17.3807 292.798 17.4425 292.53 17.4425C292.267 17.4425 292.2 17.3859 292.365 17.2933C292.478 17.2264 292.566 17.2264 292.689 17.2881Z" fill="black"/>
<path d="M293.262 17.54C293.277 17.8899 293.287 17.931 293.38 17.931C293.468 17.931 293.483 17.8899 293.499 17.6377C293.514 17.3445 293.514 17.3445 293.694 17.3084C293.937 17.2621 294.014 17.3445 294.034 17.6635C294.045 17.8693 294.071 17.9362 294.143 17.9465C294.22 17.9619 294.23 17.9207 294.23 17.6069C294.23 17.3702 294.205 17.2313 294.158 17.1901C294.117 17.1592 293.916 17.1386 293.669 17.1386L293.246 17.1489L293.262 17.54Z" fill="black"/>
<path d="M295.363 17.5608C295.363 17.9158 295.374 17.9621 295.456 17.9467C295.523 17.9364 295.549 17.8695 295.559 17.638L295.575 17.3498L295.776 17.3138C295.899 17.2932 295.982 17.2521 295.982 17.2057C295.982 17.1543 295.909 17.1389 295.672 17.144L295.363 17.1543V17.5608Z" fill="black"/>
<path d="M296.189 17.2102C296.189 17.2668 296.251 17.2874 296.441 17.2874C296.601 17.2874 296.715 17.3132 296.756 17.3646C296.812 17.4315 296.787 17.4418 296.555 17.4418C296.21 17.4418 296.086 17.5087 296.086 17.6939C296.086 17.9152 296.184 17.9615 296.606 17.9409L296.988 17.9203L297.003 17.6116C297.024 17.1948 296.962 17.1331 296.519 17.1331C296.261 17.1331 296.189 17.1485 296.189 17.2102ZM296.807 17.6682C296.807 17.7557 296.694 17.802 296.498 17.802C296.344 17.802 296.266 17.7351 296.318 17.6476C296.369 17.5653 296.807 17.5807 296.807 17.6682Z" fill="black"/>
<path d="M7.44581 18.6528C7.28091 18.7145 7.13663 18.7866 7.12633 18.8174C7.11602 18.8432 7.17786 18.9152 7.26546 18.9769L7.42004 19.0953V20.145C7.42004 21.1329 7.41489 21.1998 7.32214 21.2512C7.26546 21.2769 7.1727 21.3027 7.11602 21.3027C7.05419 21.3027 7.00781 21.3387 7.00781 21.3799C7.00781 21.4467 7.12118 21.457 7.70345 21.457C8.25996 21.457 8.39909 21.4416 8.39909 21.385C8.39909 21.3438 8.31664 21.3027 8.19813 21.2821C8.08476 21.2667 7.98686 21.2152 7.96625 21.1689C7.95079 21.1277 7.93533 20.5103 7.93533 19.8054C7.93533 18.3441 7.9817 18.4521 7.44581 18.6528Z" fill="black"/>
<path d="M9.01845 18.6785C8.80718 18.7557 8.62683 18.8432 8.61652 18.874C8.60622 18.9049 8.6732 18.9667 8.7608 19.013C8.8484 19.0593 8.94115 19.1519 8.96692 19.2239C9.0236 19.368 9.03906 21.0351 8.98753 21.1689C8.96692 21.2152 8.86901 21.2667 8.75565 21.2821C8.63713 21.3027 8.55469 21.3438 8.55469 21.385C8.55469 21.4416 8.69381 21.457 9.25032 21.457C9.8326 21.457 9.94596 21.4467 9.94596 21.3799C9.94596 21.3387 9.89959 21.3027 9.83775 21.3027C9.78107 21.3027 9.68832 21.2769 9.63164 21.2512C9.53889 21.1998 9.53373 21.1329 9.53373 20.1707V19.1416L9.80683 19.0078C10.1005 18.8586 10.4149 18.8277 10.6055 18.9306C10.8271 19.049 10.8735 19.2702 10.8735 20.217C10.8735 20.6955 10.858 21.1277 10.8426 21.1689C10.8219 21.2152 10.724 21.2667 10.6107 21.2821C10.4922 21.3027 10.4149 21.3438 10.4252 21.3747C10.4355 21.4107 10.6828 21.4364 11.1208 21.4467C11.7031 21.457 11.801 21.4467 11.801 21.3799C11.801 21.3335 11.7546 21.3027 11.6825 21.3027C11.4042 21.3027 11.3939 21.2564 11.3785 20.1192C11.363 18.9512 11.3218 18.7814 11.0332 18.6116C10.7292 18.4315 10.1675 18.5293 9.73985 18.8329C9.66255 18.8895 9.58011 18.9358 9.56465 18.9358C9.54919 18.9358 9.53373 18.8432 9.53373 18.73C9.53373 18.4881 9.52858 18.4881 9.01845 18.6785Z" fill="black"/>
<path d="M12.5488 18.6662C11.4564 19.263 11.5852 21.2543 12.7343 21.5064C13.1105 21.5887 13.4351 21.5167 13.7649 21.2749C14.0277 21.0845 14.2493 20.8118 14.1771 20.7655C14.1514 20.75 14.0483 20.8015 13.9452 20.889C13.2135 21.4653 12.3942 21.033 12.3272 20.0348L12.3015 19.6541H13.2393H14.172V19.4585C14.172 18.7279 13.2548 18.2802 12.5488 18.6662ZM13.4145 18.8308C13.5536 18.944 13.6721 19.2476 13.6206 19.3762C13.6 19.4328 13.4609 19.4483 12.9559 19.4483H12.3221L12.3788 19.2785C12.5127 18.8925 12.7137 18.733 13.0692 18.7279C13.2084 18.7279 13.3269 18.7639 13.4145 18.8308Z" fill="black"/>
<path d="M14.8331 18.7094C14.6373 18.8071 14.4827 18.9049 14.4827 18.9255C14.4879 18.9461 14.56 19.0078 14.6528 19.0644L14.8176 19.1673L14.828 20.145C14.8383 20.6852 14.8228 21.1535 14.797 21.1895C14.7764 21.2306 14.6579 21.2718 14.5394 21.2872C14.4106 21.3078 14.3281 21.3438 14.3281 21.385C14.3281 21.4416 14.493 21.457 15.1783 21.457C15.8997 21.457 16.0286 21.4467 16.0286 21.3799C16.0286 21.3233 15.9667 21.3027 15.7915 21.3027C15.3484 21.3027 15.3587 21.3233 15.3587 20.2684V19.3371L15.5081 19.1879C15.6782 19.0181 15.8534 18.9975 16.0853 19.1159C16.415 19.2908 16.7088 18.8946 16.4408 18.6271C16.2192 18.4058 15.8018 18.5499 15.5184 18.9358L15.3639 19.1519L15.3484 18.8483C15.3381 18.6322 15.3123 18.5499 15.2556 18.5396C15.2144 18.5344 15.0238 18.6065 14.8331 18.7094Z" fill="black"/>
<path d="M17.2129 18.6355C16.7646 18.8619 16.6255 19.4433 16.9295 19.8344C17.0016 19.9373 17.2387 20.0968 17.5169 20.2409C18.0374 20.5084 18.1404 20.6165 18.1404 20.8995C18.1404 21.3986 17.4293 21.5066 17.0635 21.0538C16.9759 20.9561 16.8934 20.8068 16.878 20.7245C16.8574 20.6473 16.811 20.5804 16.7749 20.5804C16.7182 20.5804 16.7079 20.6422 16.7285 20.848C16.744 20.9972 16.7646 21.1722 16.7801 21.2339C16.811 21.3934 17.2078 21.5324 17.6251 21.5272C18.2589 21.5221 18.666 21.1825 18.666 20.6525C18.666 20.2666 18.5166 20.1071 17.8982 19.7983C17.5942 19.6491 17.3211 19.4793 17.2747 19.4073C17.1459 19.2118 17.1717 18.9905 17.3417 18.8413C17.4706 18.7332 17.5272 18.7178 17.7643 18.7384C18.0786 18.7641 18.2589 18.8979 18.3465 19.1706C18.3826 19.2684 18.4393 19.3455 18.4805 19.3455C18.5372 19.3455 18.5424 19.2838 18.5166 19.0214C18.4805 18.6766 18.4651 18.6509 18.192 18.5737C17.8776 18.4863 17.4603 18.512 17.2129 18.6355Z" fill="black"/>
<path d="M26.1623 18.6615C26.0953 18.7284 26.1262 18.7696 26.2808 18.8005C26.3839 18.821 26.456 18.8725 26.4869 18.96C26.5179 19.0372 26.5385 19.5414 26.5385 20.0817C26.5385 21.2394 26.5694 21.3269 26.9765 21.4812C27.2959 21.6047 27.6566 21.5275 28.0586 21.2445C28.2183 21.1365 28.3574 21.0439 28.3677 21.0439C28.3832 21.0439 28.3935 21.1571 28.3935 21.2908V21.543L28.8573 21.4349C29.3571 21.3217 29.4911 21.1982 29.1149 21.1982H28.9088V19.9067V18.6101L28.409 18.6461C27.8628 18.6873 27.7185 18.7439 27.9607 18.8262C28.0431 18.8571 28.1668 18.9137 28.2389 18.9497L28.3677 19.0166L28.3832 19.9067C28.3987 20.9101 28.4244 20.8329 27.971 21.0696C27.6927 21.2188 27.5227 21.2291 27.3166 21.121C27.0847 21.0027 27.0538 20.8226 27.0538 19.6752V18.6255H26.6261C26.389 18.6255 26.1778 18.641 26.1623 18.6615Z" fill="black"/>
<path d="M106.769 20.0629V20.6804L106.583 20.5569C105.975 20.1452 105.156 20.4745 104.883 21.2361C104.79 21.4985 104.795 21.7403 104.893 22.0696C104.986 22.3938 105.316 22.7488 105.604 22.8466C105.898 22.9392 106.403 22.8929 106.604 22.7488C106.769 22.6356 106.769 22.6356 106.769 22.7385C106.769 22.8363 106.8 22.8466 107.052 22.8466H107.336L107.325 21.1589L107.31 19.4763L107.042 19.4609L106.769 19.4455V20.0629ZM106.465 20.9788C106.645 21.0868 106.82 21.4213 106.82 21.6683C106.82 22.2137 106.254 22.5842 105.79 22.3475C105.419 22.1571 105.274 21.6991 105.45 21.2772C105.594 20.9325 106.12 20.7781 106.465 20.9788Z" fill="black"/>
<path d="M91.0509 20.0671V20.4273H90.8139H90.582L90.5975 20.6691L90.6129 20.9161L90.8294 20.9316L91.0406 20.947L91.0612 21.6519C91.0819 22.4392 91.1385 22.6192 91.4271 22.7942C91.6178 22.9125 92.1124 22.9331 92.3855 22.8405C92.5659 22.7736 92.571 22.7582 92.468 22.506C92.4113 22.3723 92.3701 22.3311 92.3082 22.3517C92.0094 22.4649 91.7157 22.4134 91.6384 22.2385C91.6178 22.187 91.592 21.8783 91.5765 21.549L91.5559 20.947L91.9836 20.9316L92.4165 20.9161L92.4319 20.6691L92.4474 20.4273H92.0094H91.5662V20.0671V19.7069H91.3086H91.0509V20.0671Z" fill="black"/>
<path d="M81.5963 20.446C81.5087 20.482 81.4057 20.554 81.3644 20.6055C81.2923 20.693 81.2871 20.6878 81.2614 20.5746C81.2356 20.4666 81.1944 20.4511 80.9883 20.4357L80.7461 20.4203V21.6294V22.8438H80.9986H81.2562L81.2717 22.0153L81.2871 21.1869L81.4572 21.0377C81.5809 20.9245 81.6736 20.8885 81.8333 20.8885C82.3126 20.8885 82.395 21.0686 82.395 22.0977V22.8438H82.6527H82.9103V22.0822C82.9103 21.4185 82.9206 21.3053 83.0134 21.1561C83.1937 20.8628 83.6162 20.7959 83.8739 21.012L84.0182 21.1355L84.0336 21.9896L84.0491 22.8438H84.3067H84.5592V21.969C84.5592 20.9811 84.5283 20.8525 84.2346 20.5952C83.8945 20.2968 83.3019 20.3019 82.9618 20.6106L82.7712 20.7856L82.6733 20.6724C82.4414 20.4151 81.9261 20.3019 81.5963 20.446Z" fill="black"/>
<path d="M85.8521 20.4476C85.5893 20.5402 85.2801 20.8284 85.1616 21.0908C84.9967 21.4613 85.0174 21.9398 85.2132 22.2897C85.3008 22.444 85.4605 22.6293 85.5842 22.7167C85.7851 22.8557 85.8418 22.8711 86.2231 22.8711C86.5787 22.8711 86.6714 22.8505 86.8105 22.7527C87.0064 22.6138 87.0321 22.6138 87.0321 22.7425C87.0321 22.8299 87.0682 22.8454 87.2898 22.8454H87.5474V21.6362V20.427H87.2898C87.0476 20.427 87.0321 20.4373 87.0321 20.5557C87.0321 20.7049 86.9703 20.7203 86.8724 20.5968C86.6972 20.391 86.2128 20.319 85.8521 20.4476ZM86.7023 20.9879C87.027 21.1885 87.1403 21.7442 86.9136 22.0787C86.6199 22.5212 85.9964 22.5315 85.713 22.0993C85.4966 21.77 85.6048 21.1937 85.9139 20.9982C86.1252 20.8592 86.4859 20.8592 86.7023 20.9879Z" fill="black"/>
<path d="M88.8362 20.4081C88.326 20.5984 88.1663 20.7734 88.1663 21.1644C88.1663 21.5864 88.4755 21.8076 89.1917 21.8951C89.4494 21.9311 89.6606 22.0546 89.6606 22.1781C89.6606 22.2861 89.4494 22.4354 89.2896 22.4405C88.8671 22.4611 88.6146 22.4096 88.3157 22.245C88.2694 22.2192 88.0581 22.5897 88.089 22.6412C88.1612 22.7544 88.7022 22.8984 89.0526 22.8984C89.5421 22.8984 89.7843 22.8161 89.9956 22.5794C90.1399 22.4251 90.1759 22.3427 90.1759 22.1729C90.1759 21.7304 89.9131 21.5092 89.269 21.4063C88.7022 21.3136 88.5476 21.1593 88.8156 20.9483C88.9856 20.8145 89.2793 20.8094 89.6503 20.938L89.9234 21.0307L90.0265 20.83L90.1295 20.6293L89.8925 20.5264C89.6555 20.4235 88.9959 20.3463 88.8362 20.4081Z" fill="black"/>
<path d="M93.6768 20.4456C93.3625 20.5537 93.1822 20.7235 93.0327 21.027C92.6875 21.7268 92.9606 22.5501 93.6253 22.8279C93.9087 22.9463 94.4652 22.9206 94.795 22.7713C94.9496 22.6993 95.0733 22.6118 95.0733 22.5758C95.0733 22.5398 95.0217 22.442 94.9548 22.3649L94.8414 22.2208L94.6353 22.3288C94.3313 22.4832 93.8933 22.4729 93.6923 22.3031C93.6047 22.2311 93.512 22.1024 93.4862 22.0201L93.4295 21.8657L94.3158 21.8555L95.2021 21.84L95.1969 21.5313C95.1866 20.708 94.4343 20.1729 93.6768 20.4456ZM94.3519 20.9138C94.5065 20.991 94.661 21.2277 94.661 21.3769C94.661 21.4438 94.5683 21.4541 94.0736 21.4541C93.749 21.4541 93.4707 21.4335 93.4553 21.413C93.3986 21.3203 93.6099 21.0116 93.7851 20.9293C94.0066 20.8161 94.1561 20.8109 94.3519 20.9138Z" fill="black"/>
<path d="M96.6432 20.446C96.5556 20.482 96.4525 20.554 96.4113 20.6055C96.3392 20.693 96.334 20.6878 96.3083 20.5746C96.2825 20.4666 96.2464 20.4511 96.0506 20.4511H95.8187L95.8033 21.6449L95.793 22.8438H96.0506H96.3083V22.0411V21.2384L96.4886 21.0583C96.6535 20.8936 96.6896 20.8782 96.9266 20.8988L97.1842 20.9142L97.2615 20.6878C97.3234 20.5026 97.3234 20.4511 97.277 20.4151C97.1739 20.3534 96.8184 20.3688 96.6432 20.446Z" fill="black"/>
<path d="M98.4201 20.4235C97.8996 20.583 97.5647 20.9895 97.508 21.5349C97.4256 22.3067 97.9872 22.8984 98.8014 22.8984C99.1518 22.8984 99.6052 22.7544 99.6052 22.6412C99.6052 22.6154 99.5589 22.5125 99.497 22.4148L99.394 22.2347L99.1776 22.3376C98.8117 22.5022 98.4768 22.4354 98.2191 22.1575C98.0491 21.9774 98.0078 21.504 98.1315 21.2571C98.3067 20.9226 98.8323 20.7837 99.1982 20.9689C99.3734 21.0615 99.4249 21.0461 99.5331 20.8351C99.6362 20.6345 99.5743 20.5573 99.2291 20.4544C98.9508 20.372 98.6313 20.3617 98.4201 20.4235Z" fill="black"/>
<path d="M100.664 20.4955C100.195 20.7219 99.9688 21.0975 99.9688 21.6635C99.9688 22.3993 100.448 22.8984 101.159 22.8984C101.437 22.8984 101.535 22.8727 101.69 22.7698C101.917 22.6154 101.927 22.6154 101.927 22.7441C101.927 22.8315 101.963 22.847 102.184 22.847H102.442V21.6378V20.4286H102.19C101.953 20.4286 101.932 20.4389 101.917 20.5573L101.901 20.6859L101.705 20.547C101.427 20.3515 101.015 20.3309 100.664 20.4955ZM101.602 20.9946C101.844 21.1439 101.942 21.3651 101.917 21.7253C101.901 21.9671 101.865 22.0546 101.746 22.1781C101.308 22.636 100.608 22.4096 100.505 21.7819C100.458 21.4989 100.556 21.2416 100.773 21.0461C100.917 20.9226 100.999 20.8917 101.195 20.8917C101.345 20.8917 101.499 20.9329 101.602 20.9946Z" fill="black"/>
<path d="M103.985 20.4306C103.912 20.4614 103.804 20.5335 103.742 20.5901L103.624 20.6981V20.5643C103.624 20.4357 103.608 20.4254 103.392 20.4254H103.16V21.6346V22.8438H103.392H103.624V22.0822C103.624 21.4236 103.639 21.3053 103.727 21.1612C103.856 20.9451 103.995 20.8782 104.283 20.8936L104.521 20.9091L104.588 20.6878C104.624 20.5643 104.639 20.4408 104.624 20.4203C104.588 20.3585 104.144 20.3688 103.985 20.4306Z" fill="black"/>
<path d="M108.265 22.5878C108.136 22.7165 108.136 22.8039 108.265 22.9223C108.404 23.0458 108.615 22.9892 108.656 22.8091C108.682 22.7062 108.667 22.6496 108.574 22.5775C108.429 22.4592 108.393 22.4592 108.265 22.5878ZM108.569 22.6753C108.641 22.8091 108.491 22.9634 108.362 22.8914C108.265 22.84 108.234 22.6907 108.301 22.6238C108.362 22.557 108.517 22.5878 108.569 22.6753Z" fill="black"/>
<path d="M108.316 22.7408C108.316 22.8077 108.352 22.8438 108.419 22.8438C108.486 22.8438 108.523 22.8077 108.523 22.7408C108.523 22.674 108.486 22.6379 108.419 22.6379C108.352 22.6379 108.316 22.674 108.316 22.7408Z" fill="black"/>
</svg>
